<svg width="201" height="64" viewBox="0 0 201 64" fill="none" xmlns="http://www.w3.org/2000/svg">
<path fill-rule="evenodd" clip-rule="evenodd" d="M178.585 1.08651C177.492 1.39964 176.475 1.69105 175.743 1.79486C174.467 1.94974 173.146 1.36881 171.915 0.827565C170.326 0.128854 168.888 -0.503712 167.891 0.598327C166.434 2.17445 168.914 7.9673 172.803 10.5006C161.235 16.1119 144.943 44.8534 173.352 46.9494C212.617 49.8458 192.952 15.8066 179.582 10.2366C183.054 7.21637 185.444 0.433288 183.971 0.144474C182.722 -0.0986861 180.533 0.528411 178.585 1.08651ZM169.406 28.447C169.653 28.4806 169.89 28.571 170.098 28.7111L172.177 30.213C173.79 31.3902 175.729 32.0254 177.72 32.0284H180.291C180.543 32.0319 180.791 32.0941 181.015 32.21C181.239 32.3259 181.434 32.4925 181.584 32.6968C181.715 32.8779 181.808 33.084 181.857 33.3025C181.906 33.521 181.911 33.7473 181.871 33.9676L181.822 34.1574C181.256 36.0065 179.987 37.555 178.293 38.4649C177.458 38.9062 176.545 39.1758 175.606 39.258C174.667 39.3401 173.722 39.2332 172.824 38.9435L172.292 38.7867C170.528 38.1807 169.057 36.9235 168.176 35.2683C167.295 33.6132 167.069 31.6829 167.543 29.8664L167.642 29.5363C167.724 29.2986 167.86 29.0832 168.038 28.9065C168.216 28.7298 168.432 28.5965 168.669 28.5168C168.906 28.4372 169.158 28.4133 169.406 28.447Z" fill="#4857FC"/>
<path d="M40.4897 28.2445V38.1447H39.5348C36.7122 38.2298 33.957 37.2597 31.7919 35.4185C29.4433 37.1661 26.2171 38.1447 22.3284 38.1447H13.992C12.1251 38.1447 11.3164 39.5166 11.3164 42.0506V46.3235H0.467773V38.9224C0.467773 33.2514 3.60793 29.5203 9.07094 28.5154C8.84288 27.5481 8.73022 26.5565 8.73541 25.5619C8.73541 17.9948 14.1984 12.9705 22.4144 12.9705C30.6305 12.9705 36.0591 18.0647 36.0849 25.7716C36.799 27.8076 38.2185 28.2445 39.8187 28.2445H40.4897ZM26.4579 24.5571C26.4579 22.1541 24.8061 20.6687 22.4144 20.6687C21.8821 20.6284 21.3475 20.7035 20.8459 20.8889C20.3443 21.0744 19.8872 21.3659 19.5049 21.7443C19.1226 22.1226 18.8238 22.5792 18.6283 23.0837C18.4328 23.5882 18.3451 24.1291 18.371 24.6706C18.3147 25.9576 18.6742 27.228 19.3947 28.2882H22.5091H22.8016C24.7287 28.2882 26.4235 27.2571 26.4235 24.5571H26.4579Z" fill="black"/>
<path d="M79.6653 38.1672H39.9961V28.2495H42.2673C42.2187 27.8846 42.1957 27.5167 42.1985 27.1485C42.1985 20.3591 46.7668 15.1425 54.8366 15.1425C62.4074 15.1425 67.1477 19.5552 67.3628 26.301V28.3369H69.9953V26.1437C69.9953 18.4804 64.2484 13.0366 56.7293 12.8531V4.71802C70.8557 4.71802 79.6653 13.456 79.6653 25.2524V38.1672ZM51.7738 28.2932H57.8993V26.2747C57.9399 25.8391 57.8847 25.3998 57.7378 24.9885C57.5908 24.5773 57.3557 24.2043 57.0494 23.8966C56.7432 23.5888 56.3734 23.3541 55.9669 23.2093C55.5604 23.0645 55.1273 23.0132 54.6989 23.0591C52.5912 23.0591 51.3437 24.2475 51.3437 26.2747C51.3304 26.9724 51.4777 27.6635 51.7738 28.2932Z" fill="black"/>
<path d="M83.501 38.1448V7.04614H94.2033V38.1448H83.501Z" fill="black"/>
<path d="M96.5625 46.3262V36.1988H97.9304C99.1521 36.1988 100.012 35.325 100.012 33.7784V14.1353H110.448V36.4522C110.448 43.5213 106.043 46.3262 99.3413 46.3262H96.5625Z" fill="black"/>
<path d="M140.285 38.1174H112.755V28.2435H129.204C127.578 23.7783 124.825 20.4229 120.799 17.1986L128.748 12.8296C137.059 18.1773 141.558 26.2949 141.825 38.1699L140.285 38.1174Z" fill="black"/>
<path d="M19.3164 62.1301V48.2017H24.5902C25.9141 48.1764 27.2245 48.4761 28.41 49.0755C29.4846 49.6251 30.3807 50.4776 30.9909 51.5309C31.5835 52.6495 31.8937 53.9 31.8937 55.1703C31.8937 56.4406 31.5835 57.691 30.9909 58.8097C30.3842 59.8658 29.4872 60.7191 28.41 61.265C27.231 61.8653 25.9259 62.1651 24.6074 62.1388L19.3164 62.1301ZM24.5472 59.8495C25.4392 59.8759 26.3244 59.6841 27.1281 59.2902C27.8307 58.9356 28.4099 58.3717 28.7885 57.6737C29.1883 56.9109 29.3868 56.056 29.3649 55.1921C29.383 54.3269 29.1878 53.4708 28.7971 52.7018C28.4319 51.9971 27.865 51.4213 27.1711 51.0503C26.3713 50.6424 25.4848 50.4413 24.5902 50.4648H21.8457V59.8495H24.5472Z" fill="black"/>
<path d="M33.9941 62.1311V51.6455H36.3342V53.5504C36.5584 52.9898 36.9343 52.5052 37.4182 52.1523C37.9234 51.8004 38.5266 51.6227 39.1388 51.6455H40.2487V53.7776H39.2163C38.6967 53.7635 38.1846 53.9064 37.7451 54.1883C37.3032 54.4759 36.958 54.8935 36.7558 55.3854C36.504 55.9809 36.3836 56.6251 36.403 57.2728V62.1748L33.9941 62.1311Z" fill="black"/>
<path d="M43.2329 61.6902C42.4914 61.1827 41.8973 60.4827 41.5123 59.663C41.0799 58.7941 40.8614 57.8316 40.8757 56.8581C40.8688 55.8882 41.0869 54.9303 41.5123 54.062C41.9051 53.2475 42.4977 52.5494 43.2329 52.0347C43.9634 51.5321 44.8284 51.2697 45.7106 51.2833C46.4959 51.2684 47.2719 51.458 47.9647 51.8338C48.5984 52.1913 49.1156 52.7287 49.453 53.3804V51.6328H51.7673V62.1184H49.453V60.3708C49.1151 61.0198 48.5978 61.5544 47.9647 61.9087C47.275 62.2845 46.5018 62.4741 45.7192 62.4592C44.8333 62.4616 43.9671 62.1937 43.2329 61.6902ZM47.8443 59.7154C48.3068 59.4233 48.6864 59.0137 48.9454 58.5271C49.2149 58.0136 49.3539 57.44 49.3498 56.8581C49.3563 56.2805 49.2139 55.7111 48.9368 55.2066C48.678 54.7175 48.2986 54.305 47.8356 54.0095C47.3758 53.7204 46.845 53.569 46.3042 53.5726C45.7656 53.5674 45.2359 53.7125 44.7729 53.992C44.3033 54.2665 43.9188 54.6691 43.6631 55.1542C43.3943 55.687 43.2542 56.277 43.2542 56.8756C43.2542 57.4742 43.3943 58.0642 43.6631 58.597C43.9216 59.0778 44.3056 59.4769 44.7729 59.7504C45.2385 60.013 45.7631 60.1484 46.2956 60.1436C46.8323 60.1454 47.3591 59.9973 47.8184 59.7154H47.8443Z" fill="black"/>
<path d="M54.6348 62.1292V47.7114H57.0695V52.0018L57.0092 53.1727C57.3405 52.5885 57.8263 52.1102 58.4116 51.7921C59.0513 51.4447 59.7682 51.2702 60.4935 51.2853C61.0789 51.2425 61.6659 51.3405 62.207 51.5712C62.7481 51.802 63.228 52.159 63.6079 52.6134C64.3759 53.7342 64.7461 55.0869 64.6575 56.4495V62.1292H62.2142V56.5019C62.2791 55.7062 62.0557 54.9139 61.5861 54.2737C61.3595 54.0315 61.0834 53.8426 60.7772 53.7204C60.4711 53.5981 60.1423 53.5454 59.8139 53.5659C59.3377 53.5652 58.8714 53.7048 58.4718 53.9679C58.0408 54.2491 57.6906 54.641 57.4566 55.1038C57.1928 55.6093 57.0596 56.1745 57.0695 56.7466V62.1292H54.6348Z" fill="black"/>
<path d="M67.5347 49.555C67.4022 49.4216 67.298 49.2621 67.2285 49.0863C67.1589 48.9105 67.1255 48.7221 67.1303 48.5327C67.1264 48.346 67.1602 48.1605 67.2298 47.9876C67.2993 47.8147 67.4031 47.6582 67.5347 47.5278C67.6841 47.3893 67.8592 47.2824 68.0497 47.2134C68.2403 47.1444 68.4425 47.1146 68.6445 47.1259C68.8478 47.1149 69.0512 47.1448 69.2431 47.2137C69.435 47.2827 69.6116 47.3894 69.7629 47.5278C69.8973 47.6565 70.0035 47.8124 70.0746 47.9856C70.1458 48.1587 70.1803 48.3451 70.1758 48.5327C70.1818 48.7243 70.1481 48.9151 70.077 49.0927C70.0058 49.2702 69.8988 49.4307 69.7629 49.5637C69.452 49.8389 69.0476 49.98 68.6359 49.957C68.4353 49.9675 68.2346 49.9374 68.0455 49.8684C67.8565 49.7994 67.6828 49.6928 67.5347 49.555ZM67.4314 62.129V51.6434H69.8747V62.129H67.4314Z" fill="black"/>
<path d="M88.3373 52.6157C89.0615 53.7541 89.4054 55.0992 89.3181 56.4517V62.1314H86.9092V56.5041C86.9711 55.7205 86.7711 54.9386 86.3415 54.2847C86.1461 54.0447 85.8979 53.8547 85.6169 53.7303C85.3359 53.6058 85.0301 53.5502 84.7241 53.5681C84.2827 53.5686 83.8525 53.7091 83.4938 53.9701C83.0931 54.2591 82.7755 54.6512 82.5733 55.106C82.3382 55.6141 82.2205 56.17 82.2291 56.7313V62.1139H79.8202V56.4866C79.8821 55.703 79.682 54.9211 79.2524 54.2672C79.0589 54.0273 78.8122 53.8374 78.5326 53.7129C78.253 53.5883 77.9484 53.5327 77.6436 53.5506C77.2023 53.5511 76.7722 53.6916 76.4134 53.9526C76.0152 54.2443 75.6981 54.6356 75.4928 55.0885C75.2523 55.6012 75.1316 56.1634 75.1401 56.7313V62.1139H72.7656V51.6283H75.0455V53.2623C75.3353 52.6755 75.7865 52.1868 76.3445 51.8555C76.9817 51.49 77.703 51.3032 78.4347 51.3139C79.1663 51.3247 79.882 51.5327 80.5085 51.9166C81.1109 52.3468 81.5652 52.958 81.8076 53.6642C82.1824 52.9587 82.7232 52.3583 83.382 51.9166C83.9978 51.5251 84.7116 51.3219 85.4381 51.3312C85.9873 51.2942 86.5372 51.3915 87.0417 51.615C87.5461 51.8385 87.9904 52.1817 88.3373 52.6157Z" fill="black"/>
</svg>
